<?xml version="1.0" encoding="UTF-8"?>
<svg width="27px" height="33px" viewBox="0 0 27 33" version="1.1" xmlns="http://www.w3.org/2000/svg" xmlns:xlink="http://www.w3.org/1999/xlink">
    <!-- Generator: Sketch 53.1 (72631) - https://sketchapp.com -->
    <title>download</title>
    <desc>Created with Sketch.</desc>
    <g id="Page-1" stroke="none" stroke-width="1" fill="none" fill-rule="evenodd">
        <g id="Macbook-Pro-Copy-2" transform="translate(-707.000000, -740.000000)" fill="#000000" fill-rule="nonzero">
            <g id="download" transform="translate(707.000000, 740.000000)">
                <path d="M13.317,32.634 C13.041,32.634 12.817,32.41 12.817,32.134 L12.817,0.5 C12.817,0.224 13.041,0 13.317,0 C13.593,0 13.817,0.224 13.817,0.5 L13.817,32.134 C13.817,32.41 13.593,32.634 13.317,32.634 Z" id="Path"></path>
                <path d="M13.315,32.634 L13.315,32.634 C13.182,32.634 13.055,32.581 12.961,32.488 L0.428,19.951 C0.233,19.756 0.233,19.439 0.428,19.244 C0.623,19.049 0.94,19.049 1.135,19.244 L13.314,31.427 L25.498,19.244 C25.693,19.049 26.01,19.049 26.205,19.244 C26.4,19.439 26.4,19.756 26.205,19.951 L13.668,32.487 C13.574,32.581 13.448,32.634 13.315,32.634 Z" id="Path"></path>
            </g>
        </g>
    </g>
</svg>